<svg width="509" height="208" viewBox="0 0 509 208" fill="none" xmlns="http://www.w3.org/2000/svg">
<path fill-rule="evenodd" clip-rule="evenodd" d="M0 202L82 0H124.814L191 162V163L156.5 194L156 194.5V199.5L142 164H66.184L50 204H0V202ZM103 65H104L126 121V122H83H82V121L102.5 65H103Z" fill="black"/>
<path fill-rule="evenodd" clip-rule="evenodd" d="M382 0L466.5 203H415L399.5 163.196H323.064L308.5 203H307.5V166H290H281.5H277H272V165.186L340 0H382ZM361 64.6814H362L383 119.909V121.402H339V119.909L360 64.6814H361Z" fill="black"/>
<circle cx="479.5" cy="178.5" r="29" fill="#FF660F"/>
<path d="M193 81.4998L157 62.9998C175 18.9997 207.167 7.33321 221 7H243C287.8 9 302.333 44.1667 304 61.5V63.5V80.5C304.4 86.1 298.167 100.167 295 106.5C289 123.7 254.5 152.667 238 165V166H307.5V203H307H156.5H156V202.5V202V200.5V198.5V196V195V194.5L156.5 194L194 160C202.4 156 235.5 113.667 251 93L252.5 91C255.3 87.4 256 81 256 78.5V73.25V68L255.5 66.5L252 58C248.8 51.2 241.333 47.4999 238 46.4998C230.4 44.4998 224.167 45.6665 222 46.4998C210 49.2998 198.333 70.9998 194 81.4998H193Z" fill="#FF660F"/>
</svg>
